<?xml version="1.0" encoding="UTF-8"?>
<svg id="Warstwa_1" data-name="Warstwa 1" xmlns="http://www.w3.org/2000/svg" viewBox="0 0 599.52 598.3">
  <defs>
    <style>
      .cls-1 {
        fill: #000;
        stroke-width: 0px;
      }
    </style>
  </defs>
  <path class="cls-1" d="M175.63,182.26c.94.51,1.95.75,2.95.75,2.22,0,4.37-1.19,5.49-3.28,5.64-10.47,12.78-20.06,21.21-28.49,13.46-13.46,30.07-23.7,48.04-29.62,3.27-1.08,5.04-4.6,3.97-7.87-1.08-3.27-4.6-5.04-7.87-3.97-19.81,6.53-38.12,17.81-52.95,32.64-9.29,9.29-17.16,19.86-23.37,31.4-1.63,3.03-.5,6.81,2.53,8.44Z"/>
  <path class="cls-1" d="M416.26,187.41c-6.79-16.91-16.79-32.05-29.74-44.99-12.34-12.34-26.71-22.03-42.72-28.8-16.57-7.01-34.17-10.56-52.31-10.56-3.44,0-6.23,2.79-6.23,6.23s2.79,6.23,6.23,6.23c32.57,0,63.19,12.68,86.22,35.71,11.75,11.75,20.83,25.48,26.98,40.82.98,2.43,3.31,3.91,5.78,3.91.77,0,1.56-.14,2.32-.45,3.19-1.28,4.74-4.91,3.46-8.1Z"/>
  <path class="cls-1" d="M368.4,160.54c-9.99-9.99-21.62-17.83-34.57-23.3-13.41-5.67-27.66-8.55-42.34-8.55-11.71,0-23.24,1.85-34.26,5.51-3.27,1.08-5.04,4.61-3.95,7.87,1.08,3.27,4.61,5.03,7.87,3.95,9.75-3.23,19.96-4.87,30.34-4.87,25.72,0,49.9,10.02,68.09,28.2,18.19,18.19,28.2,42.37,28.2,68.09v16.2c0,3.44,2.79,6.23,6.23,6.23s6.23-2.79,6.23-6.23v-16.2c0-14.68-2.88-28.92-8.55-42.34-5.48-12.95-13.32-24.58-23.31-34.57Z"/>
  <path class="cls-1" d="M362.59,214.3c.79,0,1.6-.15,2.38-.47,3.18-1.32,4.69-4.96,3.37-8.14-4.19-10.14-10.27-19.23-18.06-27.02-15.7-15.7-36.57-24.35-58.78-24.35-8.16,0-16.22,1.18-23.96,3.51-3.3.99-5.16,4.46-4.17,7.76.99,3.29,4.46,5.16,7.76,4.17,6.58-1.98,13.43-2.98,20.37-2.98,18.88,0,36.62,7.35,49.97,20.7,6.63,6.63,11.79,14.36,15.36,22.97.99,2.4,3.31,3.85,5.76,3.85Z"/>
  <path class="cls-1" d="M341.15,230.86c.51,0,1.04-.06,1.56-.2,3.33-.86,5.34-4.25,4.48-7.59-2.55-9.92-7.75-19.01-15.03-26.29-10.86-10.86-25.3-16.84-40.65-16.84-6.23,0-12.37.99-18.23,2.95-3.26,1.09-5.02,4.62-3.93,7.88,1.09,3.26,4.62,5.03,7.88,3.93,4.59-1.53,9.39-2.31,14.28-2.31,12.03,0,23.34,4.68,31.84,13.19,5.7,5.7,9.77,12.82,11.77,20.58.72,2.81,3.25,4.68,6.03,4.68Z"/>
  <path class="cls-1" d="M342.76,328.13c3.44,0,6.23-2.79,6.23-6.23v-74.84c0-3.44-2.79-6.23-6.23-6.23s-6.23,2.79-6.23,6.23v74.84c0,3.44,2.79,6.23,6.23,6.23Z"/>
  <path class="cls-1" d="M419.66,231.22c-3.44,0-6.23,2.79-6.23,6.23v67.21c0,3.44,2.79,6.23,6.23,6.23s6.23-2.79,6.23-6.23v-67.21c0-3.44-2.79-6.23-6.23-6.23Z"/>
  <path class="cls-1" d="M211.8,390.36s-.01-.02-.01-.02c0,0,0-.02-.01-.03-10.84-19.16-16.57-41-16.57-63.16v-89.71c0-17.39,4.68-34.43,13.54-49.27,1.76-2.95.8-6.78-2.16-8.54s-6.78-.8-8.54,2.16c-10.01,16.78-15.3,36.02-15.3,55.66v89.71c0,24.28,6.28,48.22,18.15,69.24,0,0,0,0,0,0l7.81,14.11c1.14,2.05,3.26,3.21,5.46,3.21,1.02,0,2.06-.25,3.01-.78,3.01-1.67,4.1-5.46,2.43-8.47l-7.81-14.11Z"/>
  <path class="cls-1" d="M263.05,390.35s-.01-.02-.02-.02c0,0,0-.02-.01-.02-10.83-19.16-16.56-40.99-16.56-63.14v-89.71c0-6.49,1.35-12.74,4-18.6,1.42-3.13.04-6.83-3.1-8.25-3.13-1.42-6.83-.04-8.25,3.1-3.4,7.48-5.12,15.47-5.12,23.75v89.71c0,24.27,6.27,48.21,18.14,69.22,0,0,0,0,0,0l13.75,24.82c1.14,2.05,3.26,3.21,5.46,3.21,1.02,0,2.06-.25,3.01-.78,3.01-1.67,4.1-5.46,2.43-8.47l-13.75-24.82Z"/>
  <path class="cls-1" d="M320.51,447.8c-1.67-3.01-5.46-4.1-8.47-2.43-3.01,1.67-4.1,5.46-2.43,8.47l3.52,6.36c1.14,2.05,3.26,3.21,5.46,3.21,1.02,0,2.06-.25,3.01-.78,3.01-1.67,4.1-5.46,2.43-8.47l-3.52-6.36Z"/>
  <path class="cls-1" d="M308.71,426.49l-20.02-36.15s-.01-.02-.02-.02c0,0,0-.02-.01-.02-10.83-19.16-16.56-40.99-16.56-63.14v-89.71c0-5.18,2.02-10.05,5.68-13.72,3.66-3.66,8.54-5.68,13.72-5.68s10.05,2.02,13.72,5.68c3.66,3.66,5.68,8.54,5.68,13.72,0,3.44,2.79,6.23,6.23,6.23s6.23-2.79,6.23-6.23c0-8.51-3.31-16.51-9.33-22.53-6.02-6.02-14.02-9.33-22.53-9.33s-16.51,3.31-22.53,9.33c-6.02,6.02-9.33,14.02-9.33,22.53v89.71c0,24.27,6.27,48.21,18.14,69.22,0,0,0,0,0,0l20.02,36.15c1.14,2.05,3.26,3.21,5.46,3.21,1.02,0,2.06-.25,3.01-.78,3.01-1.67,4.1-5.46,2.43-8.47Z"/>
  <path class="cls-1" d="M365.77,390.28s0-.01-.01-.02c0,0,0-.02-.01-.03-8.19-14.48-13.41-30.2-15.52-46.7-.44-3.41-3.56-5.82-6.97-5.39-3.41.44-5.83,3.56-5.39,6.97,2.31,18.1,8.03,35.33,17.01,51.22l3.75,6.77c1.14,2.05,3.26,3.21,5.46,3.21,1.02,0,2.06-.25,3.01-.78,3.01-1.67,4.1-5.46,2.43-8.47l-3.75-6.77Z"/>
  <path class="cls-1" d="M329.05,396.38s0,0,0,0l24.58,44.38c1.14,2.05,3.26,3.21,5.46,3.21,1.02,0,2.06-.25,3.01-.78,3.01-1.67,4.1-5.46,2.43-8.47l-24.58-44.38s-.01-.02-.02-.02c0,0,0-.02-.01-.02-10.83-19.16-16.56-40.99-16.56-63.14,0-.01,0-.02,0-.03,0-.01,0-.02,0-.03v-62.34c0-3.44-2.79-6.23-6.23-6.23s-6.23,2.79-6.23,6.23v62.34s0,.02,0,.03c0,.01,0,.02,0,.03,0,24.27,6.27,48.21,18.14,69.22Z"/>
  <path class="cls-1" d="M169.58,327.16s0-.08,0-.13v-78.9c0-3.44-2.79-6.23-6.23-6.23s-6.23,2.79-6.23,6.23v79.02s0,.1,0,.14c.02,19.72,4.04,38.8,11.94,56.71,1.03,2.33,3.31,3.72,5.7,3.72.84,0,1.69-.17,2.51-.53,3.15-1.39,4.57-5.07,3.18-8.22-7.22-16.36-10.88-33.79-10.88-51.83Z"/>
  <path class="cls-1" d="M393.64,367.45c.81,2.7,3.28,4.45,5.97,4.45.59,0,1.19-.08,1.78-.26,3.3-.98,5.17-4.45,4.19-7.75-3.54-11.87-5.33-24.23-5.33-36.74h0v-54.41c0-3.44-2.79-6.23-6.23-6.23s-6.23,2.79-6.23,6.23v54.41h0c0,13.71,1.97,27.27,5.85,40.29Z"/>
  <path class="cls-1" d="M398.36,403.26l-7.15-12.91s-.01-.02-.02-.02c0,0,0-.02-.01-.02-10.83-19.16-16.56-40.99-16.56-63.14,0-.01,0-.02,0-.03,0-.01,0-.02,0-.03v-81.08c.44-.32.86-.68,1.26-1.08,2-2,3.1-4.66,3.1-7.49s-1.1-5.49-3.1-7.49c-2-2-4.66-3.1-7.49-3.1s-5.49,1.1-7.49,3.1c-2,2-3.1,4.66-3.1,7.49s1.1,5.49,3.1,7.49c.39.39.82.75,1.26,1.08v81.08s0,.02,0,.03c0,.01,0,.02,0,.03,0,24.27,6.27,48.21,18.14,69.22,0,0,0,0,0,0l7.15,12.9c-.65,1.38-.99,2.91-.99,4.48,0,2.83,1.1,5.49,3.1,7.49,2,2,4.66,3.1,7.49,3.1s5.49-1.1,7.49-3.1c2-2,3.1-4.66,3.1-7.49s-1.1-5.49-3.1-7.49c-1.69-1.69-3.85-2.74-6.19-3.02Z"/>
  <path class="cls-1" d="M358.52,470.15l-44.2-79.8s-.01-.02-.02-.02c0,0,0-.02-.01-.02-10.83-19.16-16.56-40.99-16.56-63.14v-81.15c.44-.32.86-.68,1.26-1.08,2-2,3.1-4.66,3.1-7.49s-1.1-5.49-3.1-7.49c-2-2-4.66-3.1-7.49-3.1s-5.49,1.1-7.49,3.1c-2,2-3.1,4.66-3.1,7.49s1.1,5.49,3.1,7.49c.39.39.82.75,1.26,1.08v81.15c0,24.27,6.27,48.21,18.14,69.22,0,0,0,0,0,0l44.19,79.79c-.65,1.38-.99,2.91-.99,4.48,0,2.83,1.1,5.49,3.1,7.49s4.66,3.1,7.49,3.1,5.49-1.1,7.49-3.1c2-2,3.1-4.66,3.1-7.49s-1.1-5.49-3.1-7.49c-1.69-1.69-3.85-2.74-6.19-3.02Z"/>
  <path class="cls-1" d="M267.4,444.48l-29.98-54.13s-.01-.02-.02-.02c0,0,0-.02-.01-.02-10.83-19.16-16.56-40.99-16.56-63.14v-89.71c0-18.2,6.84-35.35,19.29-48.52.64.12,1.3.18,1.97.18,2.83,0,5.49-1.1,7.49-3.1,2-2,3.1-4.66,3.1-7.49s-1.1-5.49-3.1-7.49c-2-2-4.66-3.1-7.49-3.1s-5.49,1.1-7.49,3.1c-2,2-3.1,4.66-3.1,7.49,0,.44.03.88.08,1.31-14.98,15.56-23.21,35.95-23.21,57.61v89.71c0,24.27,6.27,48.21,18.14,69.22,0,0,0,0,0,0l29.98,54.12c-.65,1.38-.99,2.91-.99,4.48,0,2.83,1.1,5.49,3.1,7.49s4.66,3.1,7.49,3.1,5.49-1.1,7.49-3.1c2-2,3.1-4.66,3.1-7.49s-1.1-5.49-3.1-7.49c-1.69-1.69-3.85-2.74-6.19-3.02Z"/>
</svg>